<svg width="72" height="16" viewBox="0 0 72 16" fill="none" xmlns="http://www.w3.org/2000/svg">
<style>
  @media (prefers-color-scheme: light) {
    .logo-fill { fill: #444444; }
  }
  @media (prefers-color-scheme: dark) {
    .logo-fill { fill: white; }
  }
  /* Fallback for environments that don't support prefers-color-scheme */
  .logo-fill { fill: white; }
</style>
<g clip-path="url(#clip0_411_3999)">
<path d="M28.4321 1.06445C31.5862 1.06952 34.669 1.0715 37.7517 1.08275C39.0649 1.08754 39.1624 1.15834 39.2405 2.39858C39.3506 4.14621 39.431 5.89592 39.4909 7.64578C39.5003 7.91958 39.3344 8.19893 39.2495 8.47571C38.9486 8.36093 38.578 8.31725 38.3593 8.11874C37.53 7.36604 36.7586 6.55477 35.9481 5.78233C35.4669 5.32376 34.965 4.88338 34.448 4.46252C34.2493 4.30073 33.9934 4.18806 33.7454 4.10104C32.9606 3.82571 32.1398 4.00261 31.924 4.50256C31.598 5.25768 32.1468 5.6578 32.6922 5.9662C34.0092 6.71105 35.3725 7.38023 36.6901 8.12421C37.3366 8.48927 37.9439 8.92761 38.5319 9.37757C39.5318 10.1428 39.8992 11.1592 39.6859 12.3678C39.6454 12.5975 39.5853 12.8251 39.5183 13.0493C39.0189 14.7196 38.5333 15.0893 36.7244 15.0932C33.0108 15.1012 29.2972 15.0952 25.5836 15.0854C24.4863 15.0826 24.3649 14.9691 24.3495 13.9185C24.3275 12.4236 24.3101 10.9279 24.3454 9.43381C24.3524 9.13941 24.6071 8.85042 24.7476 8.55894C24.996 8.75024 25.335 8.89331 25.4776 9.14098C26.1997 10.3944 27.1728 11.4267 28.3908 12.2258C28.8332 12.5161 29.3878 12.7492 29.913 12.7997C30.8932 12.8939 31.447 12.036 30.9582 11.2048C30.7036 10.7721 30.3195 10.366 29.8985 10.0761C28.7942 9.31561 27.6261 8.64145 26.5043 7.90351C24.9099 6.85464 24.1304 5.42516 24.3569 3.53312C24.5254 2.12554 25.1096 1.46832 26.5502 1.22388C27.1449 1.12297 27.7567 1.11523 28.4321 1.06445Z" class="logo-fill"/>
<path d="M0.822007 4.34885C0.70392 3.54575 0.607308 2.80462 0.478473 2.06871C0.376513 1.48631 0.605344 1.12014 1.21375 1.117C3.80379 1.10363 6.40217 1.01068 8.98037 1.18343C10.0884 1.25767 11.2111 1.80494 12.2281 2.31867C14.3091 3.36991 15.5242 5.11057 15.6757 7.35531C15.8197 9.48925 15.7253 11.639 15.7083 13.7815C15.7033 14.4194 15.3022 14.8145 14.6642 14.9649C14.4073 15.0255 14.1392 15.0684 13.8756 15.0718C9.80089 15.1252 5.72616 15.1755 1.65131 15.2151C0.488192 15.2264 0.493274 15.1602 0.621093 14.0534C0.991285 10.8479 1.06959 7.6327 0.822007 4.34885ZM6.62216 11.2023C7.78273 11.2122 8.94472 11.2584 10.1033 11.2167C10.6892 11.1956 11.1582 10.9315 11.2247 10.2459C11.4468 7.95633 9.15433 5.24089 6.78631 5.00822C6.20269 4.95088 5.82409 5.12621 5.8265 5.74672C5.83245 7.28523 5.81742 8.82509 5.88969 10.361C5.9029 10.6419 6.28862 10.9066 6.62216 11.2023Z" class="logo-fill"/>
<path d="M65.1499 15.0913C63.3538 15.1284 61.6306 15.1823 59.9072 15.1966C58.6374 15.2071 57.9863 14.8172 57.5994 13.6642C57.3348 12.8753 57.1688 12.0252 57.1463 11.1977C57.084 8.90993 57.1081 6.61963 57.1212 4.33046C57.1309 2.63736 58.3209 1.22298 60.0567 1.15628C63.0626 1.04078 66.0764 1.06905 69.0858 1.10964C70.091 1.12319 70.8964 1.69792 71.0974 2.66628C71.4239 4.2391 71.6706 5.83478 71.8174 7.43216C71.9324 8.68401 71.8842 9.95455 71.8318 11.2138C71.8049 11.8582 71.6932 12.5241 71.4722 13.1306C71.0853 14.1929 70.3315 14.9305 69.0794 14.9864C67.7949 15.0437 66.5084 15.058 65.1499 15.0913ZM67.743 12.0925C68.6861 11.7715 68.9756 11.3294 68.6007 10.4515C68.3118 9.77491 67.9196 9.0912 67.4054 8.56132C66.267 7.38807 65.0579 6.27162 63.8067 5.20926C63.2184 4.70984 62.4874 4.34961 61.7814 4.00068C61.2984 3.76202 60.6922 3.79532 60.4094 4.26489C60.1991 4.61416 60.1258 5.16646 60.2533 5.54725C60.4408 6.10721 60.7825 6.66448 61.1974 7.10069C62.6007 8.57598 64.0633 9.99918 65.5072 11.4386C66.087 12.0167 66.7929 12.249 67.743 12.0925Z" class="logo-fill"/>
<path d="M55.7979 11.2103C55.8026 12.2322 55.7952 13.1901 55.8083 14.1477C55.8169 14.7782 55.5469 15.0841 54.8592 15.1014C52.0441 15.1724 49.2299 15.2768 46.4148 15.3517C45.9081 15.3651 45.3907 15.3429 44.8925 15.2589C42.6253 14.8765 41.5186 13.9287 41.3307 11.7225C41.1436 9.52502 41.1725 7.29489 41.3153 5.09158C41.4472 3.05638 42.8686 1.92131 44.852 1.51099C46.0792 1.2571 47.3497 1.10533 48.6039 1.08421C50.6651 1.0495 52.7291 1.15096 54.7915 1.2098C55.6131 1.23324 55.8134 1.44577 55.7971 2.24653C55.7625 3.95076 55.7291 5.65534 55.6557 7.3582C55.6432 7.64879 55.4348 7.93156 55.3169 8.21795C55.0362 8.0366 54.7087 7.8975 54.4831 7.66644C53.6081 6.77066 52.8428 5.76097 51.8887 4.95584C50.9777 4.18701 49.7953 3.99434 48.5901 4.28149C47.1326 4.6288 46.336 5.5881 46.4002 7.02754C46.4688 8.56367 47.061 9.89301 48.3752 10.8512C50.1686 12.1587 52.374 12.1348 54.1702 10.7965C54.2469 10.7393 54.3126 10.6654 54.3955 10.6194C54.7385 10.4291 55.0862 10.2466 55.4321 10.0612C55.5529 10.4229 55.6737 10.7845 55.7979 11.2103Z" class="logo-fill"/>
<path d="M22.3217 12.2411C22.4835 12.9865 22.6243 13.6739 22.7934 14.3547C22.9265 14.8906 22.7303 15.1846 22.1596 15.1894C20.7516 15.2014 19.3435 15.2012 17.9355 15.1899C17.359 15.1853 17.1815 14.9029 17.3283 14.3586C18.2885 10.7986 18.2645 7.19585 17.7773 3.58041C17.7031 3.02938 17.5187 2.49034 17.3634 1.95158C17.1795 1.31377 17.2918 1.0919 17.9538 1.08018C19.41 1.05442 20.867 1.06851 22.3236 1.07685C22.7392 1.07923 22.9807 1.25812 22.8424 1.69842C21.7584 5.15023 21.8813 8.65792 22.3217 12.2411Z" class="logo-fill"/>
</g>
<defs>
<clipPath id="clip0_411_3999">
<rect width="72" height="15" fill="white" transform="translate(0 0.5)"/>
</clipPath>
</defs>
</svg>
